<?xml version="1.0" encoding="UTF-8"?><svg id="CONTACT" xmlns="http://www.w3.org/2000/svg" viewBox="0 0 300 82.19"><defs><style>.cls-1{font-family:DIN2014-ExtraBold, 'DIN 2014';font-size:51.98px;}</style></defs><text class="cls-1" transform="translate(81.08 60.83)"><tspan x="0" y="0">CONTACT</tspan></text><path d="M5.3,62.88c-1.45,0-2.7-.52-3.74-1.56-1.04-1.04-1.56-2.29-1.56-3.74V22.2c0-1.45,.52-2.7,1.56-3.74,1.04-1.04,2.29-1.56,3.74-1.56H53.29c1.45,0,2.7,.52,3.74,1.56,1.04,1.04,1.56,2.29,1.56,3.74V57.58c0,1.45-.52,2.7-1.56,3.74s-2.29,1.56-3.74,1.56H5.3Zm24-22.59l25.87-17.06-.93-2.88-24.93,16.36L4.36,20.33l-.93,2.88,25.87,17.06Z"/></svg>