<?xml version="1.0" encoding="utf-8"?>
<!-- Generator: Adobe Illustrator 26.3.1, SVG Export Plug-In . SVG Version: 6.00 Build 0)  -->
<svg version="1.1" id="Github" xmlns="http://www.w3.org/2000/svg" xmlns:xlink="http://www.w3.org/1999/xlink" x="0px" y="0px"
	 viewBox="0 0 300 200" style="enable-background:new 0 0 300 200;" xml:space="preserve">
<style type="text/css">
	.st0{fill:#0E0D0D;}
	.st1{fill-rule:evenodd;clip-rule:evenodd;fill:#191313;}
	.st2{fill:#191313;}
</style>
<g>
	<path class="st0" d="M113.6,93.8H94.2c-0.5,0-0.9,0.4-0.9,0.9v9.5c0,0.5,0.4,0.9,0.9,0.9h7.6v11.8c0,0-1.7,0.6-6.4,0.6
		c-5.5,0-13.3-2-13.3-19c0-17,8.1-19.3,15.6-19.3c6.6,0,9.4,1.2,11.2,1.7c0.6,0.2,1.1-0.4,1.1-0.9l2.2-9.2c0-0.2-0.1-0.5-0.3-0.7
		c-0.7-0.5-5.2-3-16.4-3c-12.9,0-26.2,5.5-26.2,32c0,26.5,15.2,30.4,28,30.4c10.6,0,17-4.5,17-4.5c0.3-0.1,0.3-0.5,0.3-0.7V94.7
		C114.5,94.2,114.1,93.8,113.6,93.8z"/>
	<path class="st0" d="M213.6,70.3c0-0.5-0.4-0.9-0.9-0.9h-10.9c-0.5,0-0.9,0.4-0.9,0.9c0,0,0,21.1,0,21.1h-17V70.3
		c0-0.5-0.4-0.9-0.9-0.9H172c-0.5,0-0.9,0.4-0.9,0.9v57.2c0,0.5,0.4,0.9,0.9,0.9h10.9c0.5,0,0.9-0.4,0.9-0.9V103h17
		c0,0,0,24.4,0,24.4c0,0.5,0.4,0.9,0.9,0.9h10.9c0.5,0,0.9-0.4,0.9-0.9V70.3z"/>
	<g>
		<g>
			<path class="st0" d="M134.2,77.8c0-3.9-3.2-7.1-7-7.1c-3.9,0-7,3.2-7,7.1c0,3.9,3.2,7.1,7,7.1C131.1,84.9,134.2,81.7,134.2,77.8z
				"/>
			<path class="st0" d="M133.5,115.3c0-1.5,0-26.4,0-26.4c0-0.5-0.4-0.9-0.9-0.9h-10.9c-0.5,0-0.9,0.5-0.9,1c0,0,0,31.7,0,37.8
				c0,1.1,0.7,1.4,1.6,1.4c0,0,4.6,0,9.8,0c1.1,0,1.3-0.5,1.3-1.5C133.5,124.8,133.5,116.9,133.5,115.3z"/>
		</g>
	</g>
	<path class="st0" d="M255.1,88.1h-10.8c-0.5,0-0.9,0.4-0.9,0.9v28c0,0-2.8,2-6.7,2c-3.9,0-4.9-1.8-4.9-5.6c0-3.8,0-24.4,0-24.4
		c0-0.5-0.4-0.9-0.9-0.9h-11c-0.5,0-0.9,0.4-0.9,0.9c0,0,0,14.9,0,26.3c0,11.4,6.3,14.1,15,14.1c7.1,0,12.9-3.9,12.9-3.9
		s0.3,2.1,0.4,2.3c0.1,0.2,0.4,0.5,0.8,0.5l7,0c0.5,0,0.9-0.4,0.9-0.9l0-38.4C256,88.6,255.6,88.1,255.1,88.1z"/>
	<path class="st0" d="M284.7,86.9c-6.2,0-10.3,2.7-10.3,2.7V70.3c0-0.5-0.4-0.9-0.9-0.9h-11c-0.5,0-0.9,0.4-0.9,0.9v57.2
		c0,0.5,0.4,0.9,0.9,0.9c0,0,7.6,0,7.6,0c0.3,0,0.6-0.2,0.8-0.5c0.2-0.3,0.5-2.6,0.5-2.6s4.5,4.2,13,4.2c10,0,15.7-5,15.7-22.7
		C300,89.2,290.9,86.9,284.7,86.9z M280.4,119.1c-3.8-0.1-6.3-1.8-6.3-1.8V99.1c0,0,2.5-1.5,5.6-1.8c3.9-0.3,7.7,0.8,7.7,10.1
		C287.4,117.3,285.7,119.2,280.4,119.1z"/>
	<path class="st0" d="M164.8,88.1h-8.2c0,0,0-10.8,0-10.8c0-0.4-0.2-0.6-0.7-0.6h-11.2c-0.4,0-0.7,0.2-0.7,0.6v11.2
		c0,0-5.6,1.4-6,1.5c-0.4,0.1-0.7,0.5-0.7,0.9v7c0,0.5,0.4,0.9,0.9,0.9h5.7c0,0,0,7.4,0,16.9c0,12.6,8.8,13.8,14.8,13.8
		c2.7,0,6-0.9,6.5-1.1c0.3-0.1,0.5-0.5,0.5-0.8l0-7.7c0-0.5-0.4-0.9-0.9-0.9c-0.5,0-1.7,0.2-3,0.2c-4,0-5.4-1.9-5.4-4.3
		c0-2.4,0-16.1,0-16.1h8.2c0.5,0,0.9-0.4,0.9-0.9V89C165.7,88.5,165.3,88.1,164.8,88.1z"/>
</g>
<g>
	<path class="st1" d="M31.5,67.1C14.1,67.1,0,81.2,0,98.6c0,13.9,9,25.7,21.5,29.9c1.6,0.3,2.2-0.7,2.2-1.5c0-0.8,0-3.2,0-5.9
		c-8.8,1.9-10.6-3.7-10.6-3.7c-1.4-3.6-3.5-4.6-3.5-4.6c-2.9-2,0.2-1.9,0.2-1.9c3.2,0.2,4.8,3.2,4.8,3.2c2.8,4.8,7.4,3.4,9.2,2.6
		c0.3-2,1.1-3.4,2-4.2c-7-0.8-14.3-3.5-14.3-15.6c0-3.4,1.2-6.2,3.2-8.5c-0.3-0.8-1.4-4,0.3-8.3c0,0,2.6-0.8,8.7,3.2
		c2.5-0.7,5.2-1,7.9-1.1c2.7,0,5.4,0.4,7.9,1.1c6-4.1,8.7-3.2,8.7-3.2c1.7,4.3,0.6,7.5,0.3,8.3c2,2.2,3.2,5,3.2,8.5
		c0,12.1-7.4,14.8-14.4,15.5c1.1,1,2.1,2.9,2.1,5.8c0,4.2,0,7.6,0,8.6c0,0.8,0.6,1.8,2.2,1.5C54,124.3,63,112.5,63,98.6
		C63,81.2,48.9,67.1,31.5,67.1z"/>
	<path class="st2" d="M11.9,112.3c-0.1,0.2-0.3,0.2-0.5,0.1c-0.2-0.1-0.4-0.3-0.3-0.5c0.1-0.2,0.3-0.2,0.5-0.1
		C11.9,111.9,12,112.1,11.9,112.3L11.9,112.3z M11.5,112"/>
	<path class="st2" d="M13.2,113.7c-0.2,0.1-0.4,0.1-0.6-0.1c-0.2-0.2-0.2-0.5-0.1-0.7c0.2-0.1,0.4-0.1,0.6,0.1
		C13.3,113.3,13.4,113.6,13.2,113.7L13.2,113.7z M12.9,113.4"/>
	<path class="st2" d="M14.4,115.5c-0.2,0.1-0.5,0-0.7-0.3c-0.2-0.3-0.2-0.6,0-0.8c0.2-0.1,0.5,0,0.7,0.3
		C14.6,115.1,14.6,115.4,14.4,115.5L14.4,115.5z M14.4,115.5"/>
	<path class="st2" d="M16.1,117.3c-0.2,0.2-0.5,0.1-0.8-0.1c-0.3-0.3-0.4-0.6-0.2-0.8c0.2-0.2,0.5-0.1,0.8,0.1
		C16.2,116.7,16.3,117.1,16.1,117.3L16.1,117.3z M16.1,117.3"/>
	<path class="st2" d="M18.5,118.3c-0.1,0.2-0.4,0.4-0.8,0.3c-0.4-0.1-0.6-0.4-0.5-0.6c0.1-0.2,0.4-0.4,0.8-0.3
		C18.3,117.8,18.6,118,18.5,118.3L18.5,118.3z M18.5,118.3"/>
	<path class="st2" d="M21.1,118.5c0,0.3-0.3,0.5-0.7,0.5c-0.4,0-0.7-0.2-0.7-0.5c0-0.3,0.3-0.5,0.7-0.5
		C20.8,118,21.1,118.2,21.1,118.5L21.1,118.5z M21.1,118.5"/>
	<path class="st2" d="M23.5,118.1c0,0.3-0.2,0.5-0.6,0.6c-0.4,0.1-0.7-0.1-0.8-0.3c0-0.3,0.2-0.5,0.6-0.6
		C23.1,117.7,23.4,117.8,23.5,118.1L23.5,118.1z M23.5,118.1"/>
</g>
</svg>
