<svg xmlns="http://www.w3.org/2000/svg" viewBox="0 0 673.8 56.2"><path d="M2.4,25.8H25.8V.5h2.4V55.7h-2.4V28.2H2.4v27.5H0V.5H2.4V25.8Z"/><path d="M61.5,56.2c-9,0-15.4-7.4-15.4-24.4v-7.4C46.1,7.4,52.6,0,61.5,0s15.4,7.4,15.4,24.4v7.4c.1,17-6.3,24.4-15.4,24.4Zm-13-24.4c0,16.2,5.7,22,13,22s13-5.8,13-22v-7.4c0-16.2-5.8-22-13-22s-13,5.8-13,22v7.4Z"/><path d="M118.3,10.3c-2.2-4.6-5.5-7.9-11.8-7.9s-10.9,3.4-10.9,11.2c0,9.4,5.7,11.1,11.9,13.2,8,2.6,13.5,5.4,13.5,15.9,0,6.9-4,13.4-14,13.4-6.7,0-11.7-3-14.8-9l2-1.4c2.6,4.3,5.8,8,12.8,8,8.2,0,11.6-5,11.6-11,0-8.2-3.7-11.1-11.8-13.5-8-2.4-13.7-5.4-13.7-15.6C93.1,6.1,96.9,0,106.5,0,113.1,0,117.2,3,120.2,9l-1.9,1.3Z"/><path d="M141.1,25.8h23.4V.5h2.4V55.7h-2.4V28.2h-23.4v27.5h-2.4V.5h2.4V25.8Z"/><path d="M190.1,55.7h-2.4V.5h2.4V55.7Z"/><path d="M239.7,.5V55.7h-2.5L213.3,6.3V55.7h-2.4V.5h2.4l24,49.8V.5h2.4Z"/><path d="M273.1,56.2c-9,0-15.4-7.4-15.4-24.4v-7.4c0-17,6.5-24.4,15.4-24.4s15.4,7.4,15.4,24.4v7.4c0,17-6.4,24.4-15.4,24.4Zm-13.1-24.4c0,16.2,5.7,22,13,22s13-5.8,13-22v-7.4c0-16.2-5.8-22-13-22s-13,5.8-13,22v7.4Z"/><path d="M353.9,10.3c-2.2-4.6-5.5-7.9-11.8-7.9s-10.9,3.4-10.9,11.2c0,9.4,5.7,11.1,11.9,13.2,8,2.6,13.5,5.4,13.5,15.9,0,6.9-4,13.4-14,13.4-6.7,0-11.7-3-14.8-9l2-1.4c2.6,4.3,5.8,8,12.8,8,8.2,0,11.6-5,11.6-11,0-8.2-3.7-11.1-11.8-13.5-8-2.4-13.7-5.4-13.7-15.6C328.7,6.1,332.5,0,342.1,0,348.7,0,352.8,3,355.8,9l-1.9,1.3Z"/><path d="M387.5,56.2c-9,0-15.4-7.4-15.4-24.4v-7.4c0-17,6.5-24.4,15.4-24.4s15.4,7.4,15.4,24.4v7.4c0,17-6.4,24.4-15.4,24.4Zm-13.1-24.4c0,16.2,5.7,22,13,22s13-5.8,13-22v-7.4c0-16.2-5.8-22-13-22s-13,5.8-13,22v7.4Z"/><path d="M445.7,.5V2.9h-22.5V27.2h20.7v2.4h-20.6v26.1h-2.4V.5h24.8Z"/><path d="M488.3,.5V2.9h-14V55.7h-2.4V2.9h-14V.5h30.4Z"/><path d="M511.3,55.7h-2.8L497.9,.5h2.5l9.5,51.4L521,.5h2.6l11.1,51.4L544.2,.5h2.5l-10.6,55.2h-2.8l-11.1-50.5-10.9,50.5Z"/><path d="M556.4,55.7L570.9,.5h2.4l14.5,55.2h-2.6l-3.7-14.2h-18.9l-3.7,14.2h-2.5Zm7.1-16.6h17.3l-8.6-34-8.7,34Z"/><path d="M629.6,55.7l-9.9-23.9c-1.2,.2-2.8,.3-4.2,.3h-10.3v23.6h-2.4V.5h13.2c9.6,0,15.1,5.5,15.1,15.8,0,7.9-3.3,13-9.1,15l10.2,24.4h-2.6Zm-13.6-26c7.8,0,12.7-3.7,12.7-13.4s-5-13.4-12.7-13.4h-10.8V29.7h10.8Z"/><path d="M673.8,.5V2.9h-22.5V25.9h20.6v2.4h-20.6v25h22.5v2.4h-24.9V.5h24.9Z"/></svg>