<?xml version="1.0" encoding="UTF-8"?><svg id="Twitter" xmlns="http://www.w3.org/2000/svg" viewBox="0 0 300 82.19"><defs><style>.cls-1{fill:#1d9bf0;}.cls-2{fill:#707070;font-family:Arial-BoldMT, Arial;font-size:53.63px;letter-spacing:.05em;}</style></defs><text class="cls-2" transform="translate(.56 58.13)"><tspan x="0" y="0">Twitter</tspan></text><path id="Logo" class="cls-1" d="M289.65,20.46c.06,.89,.06,1.78,.06,2.68,0,27.42-20.88,59.05-59.05,59.05v-.02c-11.28,.02-22.32-3.22-31.81-9.31,1.64,.2,3.29,.3,4.94,.3,9.35,0,18.43-3.13,25.77-8.9-8.88-.17-16.67-5.96-19.39-14.41,3.11,.6,6.32,.48,9.37-.36-9.68-1.96-16.65-10.47-16.65-20.34v-.26c2.89,1.61,6.12,2.5,9.42,2.6-9.12-6.09-11.93-18.22-6.43-27.7,10.54,12.97,26.09,20.85,42.77,21.68-1.67-7.21,.61-14.76,6-19.83,8.36-7.86,21.5-7.46,29.36,.9,4.65-.92,9.1-2.62,13.18-5.04-1.55,4.81-4.79,8.89-9.12,11.48,4.11-.49,8.13-1.59,11.92-3.27-2.79,4.17-6.29,7.8-10.35,10.74Z"/></svg>